<?xml version="1.0" encoding="UTF-8"?>
<svg xmlns="http://www.w3.org/2000/svg" xmlns:xlink="http://www.w3.org/1999/xlink" width="18px" height="18px" viewBox="0 0 18 18" version="1.1">
<defs>
<filter id="alpha" filterUnits="objectBoundingBox" x="0%" y="0%" width="100%" height="100%">
  <feColorMatrix type="matrix" in="SourceGraphic" values="0 0 0 0 1 0 0 0 0 1 0 0 0 0 1 0 0 0 1 0"/>
</filter>
<mask id="mask0">
  <g filter="url(#alpha)">
<rect x="0" y="0" width="18" height="18" style="fill:rgb(0%,0%,0%);fill-opacity:0.2;stroke:none;"/>
  </g>
</mask>
<clipPath id="clip1">
  <rect x="0" y="0" width="18" height="18"/>
</clipPath>
<g id="surface5" clip-path="url(#clip1)">
<path style=" stroke:none;fill-rule:nonzero;fill:rgb(100%,100%,100%);fill-opacity:1;" d="M 2.859375 9.65625 C 2.859375 8.339844 3.535156 7.3125 4.789062 6.671875 L 4.789062 6.414062 C 4.808594 5.210938 5.472656 4.113281 6.523438 3.53125 C 7.578125 2.945312 8.859375 2.96875 9.890625 3.589844 C 10.726562 2.4375 12.066406 1.757812 13.488281 1.757812 C 12.691406 1.054688 11.664062 0.667969 10.597656 0.667969 C 9.265625 0.664062 8.015625 1.296875 7.226562 2.371094 C 6.730469 2.046875 6.148438 1.878906 5.558594 1.886719 C 3.832031 1.886719 2.429688 3.277344 2.410156 5.003906 L 2.410156 5.261719 C 1.3125 5.773438 0.613281 6.875 0.613281 8.085938 C 0.609375 9.695312 1.734375 11.089844 3.3125 11.421875 C 3.011719 10.882812 2.859375 10.273438 2.859375 9.65625 Z M 2.859375 9.65625 "/>
</g>
</defs>
<g id="surface1">
<path style=" stroke:none;fill-rule:nonzero;fill:rgb(34.901961%,70.588235%,85.098039%);fill-opacity:1;" d="M 14.738281 5.226562 C 14.738281 5.097656 14.773438 4.9375 14.773438 4.808594 C 14.765625 3.710938 14.324219 2.660156 13.539062 1.886719 C 12.757812 1.117188 11.699219 0.6875 10.597656 0.699219 C 9.269531 0.667969 8.007812 1.292969 7.226562 2.371094 C 6.730469 2.046875 6.148438 1.878906 5.558594 1.886719 C 3.832031 1.886719 2.429688 3.277344 2.410156 5.003906 L 2.410156 5.261719 C 1.3125 5.773438 0.613281 6.875 0.613281 8.085938 C 0.621094 9.019531 1.011719 9.914062 1.6875 10.558594 C 2.363281 11.207031 3.273438 11.550781 4.210938 11.519531 L 13.070312 11.519531 C 14.007812 11.550781 14.914062 11.207031 15.59375 10.558594 C 16.269531 9.914062 16.65625 9.019531 16.667969 8.085938 C 16.679688 6.824219 15.910156 5.6875 14.738281 5.226562 Z M 14.738281 5.226562 "/>
<path style=" stroke:none;fill-rule:nonzero;fill:rgb(98.823529%,81.960784%,8.627451%);fill-opacity:1;" d="M 8.257812 12.632812 L 8.59375 13.4375 L 7.832031 14.769531 L 8.667969 15.601562 L 10.042969 14.957031 L 10.847656 15.296875 L 11.269531 16.554688 L 11.308594 16.703125 L 12.496094 16.703125 L 12.992188 15.296875 L 13.796875 14.957031 L 14.980469 15.570312 L 15.128906 15.644531 L 15.964844 14.808594 L 15.328125 13.5 L 15.667969 12.695312 L 16.925781 12.273438 L 17.074219 12.230469 L 17.074219 11.046875 L 15.667969 10.550781 L 15.332031 9.746094 L 15.941406 8.5625 L 16.015625 8.414062 L 15.214844 7.578125 L 13.882812 8.222656 L 13.078125 7.886719 L 12.65625 6.628906 L 12.582031 6.480469 L 11.449219 6.480469 L 10.953125 7.886719 L 10.148438 8.222656 L 8.964844 7.613281 L 8.816406 7.539062 L 8.023438 8.488281 L 8.59375 9.707031 L 8.257812 10.507812 L 7 10.929688 L 6.851562 11.003906 L 6.851562 12.136719 Z M 10.328125 11.605469 C 10.328125 10.703125 11.0625 9.96875 11.96875 9.96875 C 12.871094 9.96875 13.605469 10.703125 13.605469 11.605469 C 13.605469 12.511719 12.871094 13.246094 11.96875 13.246094 C 11.53125 13.25 11.113281 13.078125 10.804688 12.769531 C 10.496094 12.460938 10.324219 12.042969 10.328125 11.605469 Z M 10.328125 11.605469 "/>
<path style=" stroke:none;fill-rule:nonzero;fill:rgb(34.117647%,63.921569%,0%);fill-opacity:1;" d="M 3.15625 15.488281 L 3.46875 15.824219 L 3.335938 16.617188 L 3.898438 16.878906 L 4.457031 16.308594 L 4.917969 16.332031 L 5.351562 16.875 L 5.398438 16.9375 L 5.984375 16.722656 L 5.972656 15.941406 L 6.308594 15.628906 L 7.003906 15.714844 L 7.089844 15.726562 L 7.347656 15.164062 L 6.796875 14.632812 L 6.820312 14.175781 L 7.363281 13.738281 L 7.425781 13.691406 L 7.210938 13.105469 L 6.429688 13.117188 L 6.117188 12.78125 L 6.203125 12.089844 L 6.214844 12.003906 L 5.667969 11.738281 L 5.125 12.296875 L 4.667969 12.273438 L 4.234375 11.730469 L 4.167969 11.671875 L 3.613281 11.878906 L 3.621094 12.660156 L 3.289062 12.972656 L 2.59375 12.886719 L 2.507812 12.878906 L 2.289062 13.492188 L 2.792969 13.984375 L 2.773438 14.441406 L 2.226562 14.878906 L 2.167969 14.941406 L 2.375 15.5 Z M 3.992188 14.605469 C 3.828125 14.160156 4.054688 13.667969 4.5 13.503906 C 4.949219 13.339844 5.441406 13.566406 5.605469 14.011719 C 5.769531 14.457031 5.542969 14.953125 5.097656 15.117188 C 4.882812 15.199219 4.644531 15.191406 4.4375 15.09375 C 4.230469 15 4.066406 14.824219 3.992188 14.605469 Z M 3.992188 14.605469 "/>
<use xlink:href="#surface5" mask="url(#mask0)"/>
</g>
</svg>
