<?xml version="1.0" encoding="UTF-8"?>
<svg xmlns="http://www.w3.org/2000/svg" xmlns:xlink="http://www.w3.org/1999/xlink" width="64pt" height="64pt" viewBox="0 0 64 64" version="1.1">
<defs>
<filter id="alpha" filterUnits="objectBoundingBox" x="0%" y="0%" width="100%" height="100%">
  <feColorMatrix type="matrix" in="SourceGraphic" values="0 0 0 0 1 0 0 0 0 1 0 0 0 0 1 0 0 0 1 0"/>
</filter>
<mask id="mask0">
  <g filter="url(#alpha)">
<rect x="0" y="0" width="64" height="64" style="fill:rgb(0%,0%,0%);fill-opacity:0.101961;stroke:none;"/>
  </g>
</mask>
<clipPath id="clip1">
  <rect x="0" y="0" width="64" height="64"/>
</clipPath>
<g id="surface5" clip-path="url(#clip1)">
<path style=" stroke:none;fill-rule:nonzero;fill:rgb(100%,100%,100%);fill-opacity:1;" d="M 9.820312 9 C 0.957031 16.898438 -2.804688 29.054688 0.046875 40.578125 C 2.898438 52.101562 11.898438 61.101562 23.421875 63.953125 C 34.945312 66.804688 47.101562 63.042969 55 54.179688 Z M 9.820312 9 "/>
</g>
</defs>
<g id="surface1">
<path style=" stroke:none;fill-rule:nonzero;fill:rgb(36.078431%,17.647059%,56.862745%);fill-opacity:1;" d="M 64 32 C 64 49.671875 49.671875 64 32 64 C 14.328125 64 0 49.671875 0 32 C 0 14.328125 14.328125 0 32 0 C 49.671875 0 64 14.328125 64 32 Z M 64 32 "/>
<use xlink:href="#surface5" mask="url(#mask0)"/>
<path style=" stroke:none;fill-rule:nonzero;fill:rgb(100%,100%,100%);fill-opacity:1;" d="M 7.398438 37.25 C 7.023438 37.257812 6.660156 37.105469 6.398438 36.828125 C 6.132812 36.566406 5.984375 36.207031 5.988281 35.828125 C 5.988281 35.457031 6.136719 35.09375 6.398438 34.828125 C 6.65625 34.550781 7.019531 34.394531 7.398438 34.398438 C 7.777344 34.398438 8.140625 34.554688 8.398438 34.828125 C 8.667969 35.09375 8.820312 35.453125 8.820312 35.828125 C 8.824219 36.207031 8.671875 36.570312 8.398438 36.828125 C 8.136719 37.101562 7.777344 37.253906 7.398438 37.25 Z M 7.398438 37.25 "/>
<path style=" stroke:none;fill-rule:nonzero;fill:rgb(100%,100%,100%);fill-opacity:1;" d="M 27.269531 37 L 24.648438 37 L 15.28125 22.460938 C 15.046875 22.101562 14.851562 21.71875 14.699219 21.320312 L 14.621094 21.320312 C 14.710938 22.148438 14.742188 22.984375 14.71875 23.820312 L 14.71875 37 L 12.589844 37 L 12.589844 18.769531 L 15.359375 18.769531 L 24.480469 33.050781 C 24.859375 33.644531 25.105469 34.050781 25.21875 34.269531 L 25.269531 34.269531 C 25.164062 33.378906 25.121094 32.484375 25.140625 31.589844 L 25.140625 18.769531 L 27.269531 18.769531 Z M 27.269531 37 "/>
<path style=" stroke:none;fill-rule:nonzero;fill:rgb(100%,100%,100%);fill-opacity:1;" d="M 41.691406 37 L 32 37 L 32 18.769531 L 41.238281 18.769531 L 41.238281 20.699219 L 34.179688 20.699219 L 34.179688 26.761719 L 40.761719 26.761719 L 40.761719 28.679688 L 34.179688 28.679688 L 34.179688 35 L 41.699219 35 Z M 41.691406 37 "/>
<path style=" stroke:none;fill-rule:nonzero;fill:rgb(100%,100%,100%);fill-opacity:1;" d="M 56 20.699219 L 50.699219 20.699219 L 50.699219 37 L 48.570312 37 L 48.570312 20.699219 L 43.328125 20.699219 L 43.328125 18.769531 L 56 18.769531 Z M 56 20.699219 "/>
<path style=" stroke:none;fill-rule:nonzero;fill:rgb(94.901961%,94.901961%,94.901961%);fill-opacity:1;" d="M 26.121094 49.398438 C 25.398438 49.75 24.601562 49.917969 23.800781 49.890625 C 22.722656 49.9375 21.675781 49.519531 20.929688 48.738281 C 20.195312 47.917969 19.808594 46.84375 19.851562 45.738281 C 19.796875 44.535156 20.230469 43.359375 21.058594 42.480469 C 21.867188 41.652344 22.984375 41.203125 24.140625 41.238281 C 24.824219 41.214844 25.503906 41.335938 26.140625 41.589844 L 26.140625 42.589844 C 25.527344 42.25 24.839844 42.078125 24.140625 42.089844 C 23.25 42.066406 22.390625 42.429688 21.789062 43.089844 C 21.167969 43.800781 20.84375 44.726562 20.890625 45.671875 C 20.84375 46.566406 21.144531 47.441406 21.730469 48.121094 C 22.296875 48.730469 23.105469 49.0625 23.941406 49.03125 C 24.707031 49.050781 25.464844 48.855469 26.128906 48.46875 Z M 26.121094 49.398438 "/>
<path style=" stroke:none;fill-rule:nonzero;fill:rgb(94.901961%,94.901961%,94.901961%);fill-opacity:1;" d="M 30.210938 49.890625 C 29.40625 49.917969 28.628906 49.589844 28.078125 49 C 27.53125 48.390625 27.25 47.589844 27.289062 46.769531 C 27.238281 45.902344 27.539062 45.054688 28.121094 44.410156 C 28.714844 43.832031 29.519531 43.523438 30.351562 43.558594 C 31.132812 43.519531 31.898438 43.820312 32.441406 44.390625 C 32.972656 45.03125 33.238281 45.847656 33.191406 46.679688 C 33.230469 47.523438 32.941406 48.347656 32.378906 48.980469 C 31.820312 49.582031 31.03125 49.914062 30.210938 49.890625 Z M 30.28125 44.421875 C 29.722656 44.398438 29.183594 44.628906 28.820312 45.050781 C 28.433594 45.546875 28.242188 46.164062 28.28125 46.789062 C 28.246094 47.398438 28.4375 47.996094 28.820312 48.46875 C 29.1875 48.886719 29.726562 49.113281 30.28125 49.089844 C 30.824219 49.121094 31.351562 48.902344 31.710938 48.488281 C 32.074219 47.992188 32.25 47.382812 32.210938 46.769531 C 32.25 46.152344 32.074219 45.539062 31.710938 45.039062 C 31.355469 44.621094 30.828125 44.390625 30.28125 44.421875 Z M 30.28125 44.421875 "/>
<path style=" stroke:none;fill-rule:nonzero;fill:rgb(94.901961%,94.901961%,94.901961%);fill-opacity:1;" d="M 37.859375 44.71875 C 37.644531 44.578125 37.386719 44.511719 37.128906 44.53125 C 36.722656 44.542969 36.347656 44.761719 36.128906 45.109375 C 35.832031 45.582031 35.6875 46.132812 35.71875 46.691406 L 35.71875 49.75 L 34.71875 49.75 L 34.71875 43.75 L 35.71875 43.75 L 35.71875 45 C 35.828125 44.613281 36.046875 44.265625 36.351562 44 C 36.609375 43.773438 36.945312 43.648438 37.289062 43.648438 C 37.484375 43.640625 37.675781 43.667969 37.859375 43.730469 Z M 37.859375 44.71875 "/>
<path style=" stroke:none;fill-rule:nonzero;fill:rgb(94.901961%,94.901961%,94.901961%);fill-opacity:1;" d="M 43.71875 47 L 39.488281 47 C 39.460938 47.558594 39.644531 48.109375 40 48.539062 C 40.375 48.914062 40.890625 49.109375 41.421875 49.078125 C 42.097656 49.074219 42.753906 48.835938 43.28125 48.410156 L 43.28125 49.308594 C 42.660156 49.71875 41.929688 49.917969 41.191406 49.878906 C 40.433594 49.917969 39.703125 49.617188 39.191406 49.058594 C 38.667969 48.410156 38.410156 47.589844 38.460938 46.761719 C 38.425781 45.925781 38.707031 45.113281 39.25 44.480469 C 39.75 43.902344 40.484375 43.578125 41.25 43.601562 C 41.941406 43.5625 42.613281 43.839844 43.070312 44.359375 C 43.53125 44.96875 43.757812 45.71875 43.710938 46.480469 Z M 42.71875 46.191406 C 42.742188 45.726562 42.597656 45.269531 42.320312 44.898438 C 42.042969 44.585938 41.636719 44.417969 41.21875 44.441406 C 40.785156 44.433594 40.367188 44.613281 40.070312 44.929688 C 39.742188 45.277344 39.535156 45.722656 39.480469 46.199219 Z M 42.71875 46.191406 "/>
</g>
</svg>
