<svg xmlns:xlink="http://www.w3.org/1999/xlink" xmlns="http://www.w3.org/2000/svg" height="18" width="18" aria-hidden="true" role="presentation" focusable="false"><defs><symbol viewBox="0 0 18 18" class="" role="presentation" focusable="false" xmlns:svg="http://www.w3.org/2000/svg" xmlns:xlink="http://www.w3.org/1999/xlink" id="FxSymbol0-013" data-type="1"><g><title></title><defs></defs><title>Icon-integration-214</title><path fill="#50e6ff" d="M13.39 7.4h-.01v-.02h-.02L9 4.41 4.63 7.38h-.02v5.82h8.77V7.4h.01z"></path><path d="M4.61 7.4v5.8L9 10.3Z" fill="#32bedd"></path><path d="M13.38 7.4 9 10.3l4.38 2.9Z" fill="#198ab3"></path><path fill="url(#b3162c7a-ef4c-4306-b465-53ee9e86a00f)" d="m8.99 10.3-4.38 2.89v.01h8.77v-.01L8.99 10.3z"></path><g fill="#999"><path d="M1.07 1.43h1.29V5a.29.29 0 0 1-.29.29H.79A.29.29 0 0 1 .5 5V2a.57.57 0 0 1 .57-.57Z"></path><path d="M1.07 1.43h1.29V5a.29.29 0 0 1-.29.29H.79A.29.29 0 0 1 .5 5V2a.57.57 0 0 1 .57-.57Z" opacity=".5"></path></g><g fill="#999"><path d="M15.64 1.43h1.29a.57.57 0 0 1 .57.57v3a.29.29 0 0 1-.29.29h-1.29a.29.29 0 0 1-.28-.29V1.43Z"></path><path d="M15.64 1.43h1.29a.57.57 0 0 1 .57.57v3a.29.29 0 0 1-.29.29h-1.29a.29.29 0 0 1-.28-.29V1.43Z" opacity=".5"></path></g><path d="M17.5 2v1.25H.5V2a.57.57 0 0 1 .57-.57h15.87a.57.57 0 0 1 .56.57Z" fill="#949494"></path><g fill="#999"><path d="M.79 12.68h1.29a.29.29 0 0 1 .29.29v3.6h-1.3A.57.57 0 0 1 .5 16v-3a.29.29 0 0 1 .29-.32Z"></path><path d="M.79 12.68h1.29a.29.29 0 0 1 .29.29v3.6h-1.3A.57.57 0 0 1 .5 16v-3a.29.29 0 0 1 .29-.32Z" opacity=".5"></path></g><g fill="#999"><path d="M15.92 12.68h1.29a.29.29 0 0 1 .29.29v3a.57.57 0 0 1-.57.57h-1.29V13a.29.29 0 0 1 .28-.32Z"></path><path d="M15.92 12.68h1.29a.29.29 0 0 1 .29.29v3a.57.57 0 0 1-.57.57h-1.29V13a.29.29 0 0 1 .28-.32Z" opacity=".5"></path></g><path d="M.5 16v-1.25h17V16a.57.57 0 0 1-.57.57H1.07A.57.57 0 0 1 .5 16Z" fill="#949494"></path></g></symbol></defs><use href="#FxSymbol0-013" fill="#323130"></use></svg>