<?xml version="1.0" encoding="UTF-8"?>
<svg xmlns="http://www.w3.org/2000/svg" xmlns:xlink="http://www.w3.org/1999/xlink" width="20px" height="20px" viewBox="0 0 20 20" version="1.1">
<g id="surface1">
<path style=" stroke:none;fill-rule:evenodd;fill:rgb(34.901961%,70.588235%,85.098039%);fill-opacity:1;" d="M 8.183594 14.546875 L 9.3125 11.816406 L 11.816406 11.816406 C 12.820312 11.816406 13.636719 11.003906 13.636719 10 C 13.636719 8.996094 12.820312 8.183594 11.816406 8.183594 L 3.636719 8.183594 L 8.183594 3.636719 L 8.183594 5.453125 L 11.816406 5.453125 C 14.328125 5.453125 16.363281 7.488281 16.363281 10 C 16.363281 12.441406 14.433594 14.417969 12.019531 14.527344 L 15.703125 18.210938 C 18.296875 16.402344 20 13.402344 20 10 C 20 4.476562 15.523438 0 10 0 C 4.476562 0 0 4.476562 0 10 C 0 15.523438 4.476562 20 10 20 C 11.09375 20 12.144531 19.816406 13.128906 19.492188 Z M 8.183594 14.546875 "/>
</g>
</svg>
